HIERARCHY
ROOT Hips
{
	OFFSET -0.001795 -0.223333 0.028219
	CHANNELS 6 Xposition Yposition Zposition Zrotation Yrotation Xrotation 
	JOINT LeftUpLeg
	{
		OFFSET 0.069520 -0.091406 -0.006815
		CHANNELS 3 Zrotation Yrotation Xrotation
		JOINT LeftLeg
		{
			OFFSET 0.034277 -0.375199 -0.004496
			CHANNELS 3 Zrotation Yrotation Xrotation
			JOINT LeftFoot
			{
				OFFSET -0.013596 -0.397961 -0.043693
				CHANNELS 3 Zrotation Yrotation Xrotation
				JOINT LeftToe
				{
					OFFSET 0.026358 -0.055791 0.119288
					CHANNELS 3 Zrotation Yrotation Xrotation
					End Site
					{
						OFFSET 0.000000 0.000000 0.000000
					}
				}
			}
		}
	}
	JOINT RightUpLeg
	{
		OFFSET -0.067670 -0.090522 -0.004320
		CHANNELS 3 Zrotation Yrotation Xrotation
		JOINT RightLeg
		{
			OFFSET -0.038290 -0.382569 -0.008850
			CHANNELS 3 Zrotation Yrotation Xrotation
			JOINT RightFoot
			{
				OFFSET 0.015774 -0.398415 -0.042312
				CHANNELS 3 Zrotation Yrotation Xrotation
				JOINT RightToe
				{
					OFFSET -0.025372 -0.048144 0.123348
					CHANNELS 3 Zrotation Yrotation Xrotation
					End Site
					{
						OFFSET 0.000000 0.000000 0.000000
					}
				}
			}
		}
	}
	JOINT Spine
	{
		OFFSET -0.002533 0.108963 -0.026696
		CHANNELS 3 Zrotation Yrotation Xrotation
		JOINT Spine1
		{
			OFFSET 0.005487 0.135180 0.001092
			CHANNELS 3 Zrotation Yrotation Xrotation
			JOINT Spine2
			{
				OFFSET 0.001457 0.052922 0.025425
				CHANNELS 3 Zrotation Yrotation Xrotation
				JOINT Neck
				{
					OFFSET -0.002778 0.213870 -0.042857
					CHANNELS 3 Zrotation Yrotation Xrotation
					JOINT Head
					{
						OFFSET 0.005152 0.064970 0.051349
						CHANNELS 3 Zrotation Yrotation Xrotation
						End Site
						{
							OFFSET 0.000000 0.000000 0.000000
						}
					}
				}
				JOINT LeftShoulder
				{
					OFFSET 0.078845 0.121749 -0.034090
					CHANNELS 3 Zrotation Yrotation Xrotation
					JOINT LeftArm
					{
						OFFSET 0.090977 0.030469 -0.008868
						CHANNELS 3 Zrotation Yrotation Xrotation
						JOINT LeftForeArm
						{
							OFFSET 0.259612 -0.012772 -0.027456
							CHANNELS 3 Zrotation Yrotation Xrotation
							JOINT LeftHand
							{
								OFFSET 0.249234 0.008986 -0.001171
								CHANNELS 3 Zrotation Yrotation Xrotation
								End Site
								{
									OFFSET 0.000000 0.000000 0.000000
								}
							}
						}
					}
				}
				JOINT RightShoulder
				{
					OFFSET -0.081759 0.118833 -0.038615
					CHANNELS 3 Zrotation Yrotation Xrotation
					JOINT RightArm
					{
						OFFSET -0.096012 0.032551 -0.009143
						CHANNELS 3 Zrotation Yrotation Xrotation
						JOINT RightForeArm
						{
							OFFSET -0.253742 -0.013329 -0.021401
							CHANNELS 3 Zrotation Yrotation Xrotation
							JOINT RightHand
							{
								OFFSET -0.255298 0.007772 -0.005559
								CHANNELS 3 Zrotation Yrotation Xrotation
								End Site
								{
									OFFSET 0.000000 0.000000 0.000000
								}
							}
						}
					}
				}
			}
		}
	}
}
MOTION
Frames: 15
Frame Time: 0.050000
0.000000 0.946063 0.000000 -0.641650 -3.749521 5.695803 5.054252 -0.249831 -3.292426 1.258498 0.047142 -4.216507 -0.357404 3.279487 11.162379 0.000000 0.000000 0.000000 -2.087261 0.465310 -4.625827 -1.279542 -0.002838 -2.490071 0.108526 -5.081020 11.408663 0.000000 0.000000 0.000000 5.391667 0.239767 -4.190726 -2.739762 1.238049 -4.669314 -3.345804 4.698359 4.743152 7.309879 -3.663370 -11.854734 0.000000 0.000000 0.000000 -18.339350 -0.602927 -2.219007 -53.314863 -4.864416 -4.079303 -10.412126 -20.286814 2.486071 0.000000 0.000000 0.000000 16.406655 -6.935333 -4.442314 60.487071 1.373552 -5.083601 11.115201 23.173875 3.033684 0.000000 0.000000 0.000000 
0.000049 0.945058 0.001237 -0.896128 -4.139195 6.568658 5.495659 -0.240088 -3.022451 0.913099 0.155965 -6.057411 -0.198580 3.573566 11.430768 0.000000 0.000000 0.000000 -2.150847 0.543404 -5.500834 -0.761338 -0.045954 -2.564954 0.235207 -4.832996 11.266397 0.000000 0.000000 0.000000 6.159775 0.303692 -4.879624 -3.195985 1.432276 -4.147699 -3.989745 5.352599 3.464316 8.190862 -4.080642 -12.269174 0.000000 0.000000 0.000000 -19.466940 -0.437632 -2.668011 -51.863534 -4.984298 -3.718616 -10.918956 -20.376897 2.544999 0.000000 0.000000 0.000000 16.316366 -8.267366 -5.036577 61.273184 0.075961 -5.632897 11.442040 23.145617 3.111137 0.000000 0.000000 0.000000 
-0.000033 0.944593 0.002172 -0.498965 -3.754787 6.313068 5.143731 -0.251837 -3.195256 0.822821 0.129870 -5.343573 -0.347073 3.274490 11.109178 0.000000 0.000000 0.000000 -2.130669 0.531731 -5.390751 -1.516392 0.036062 -2.076278 -0.064220 -5.193932 10.804744 0.000000 0.000000 0.000000 5.870196 0.285939 -4.723751 -2.721044 1.223529 -5.015398 -4.449222 5.054144 3.870668 7.593397 -3.882490 -11.287818 0.000000 0.000000 0.000000 -18.965544 -0.699402 -2.430842 -52.061823 -4.568120 -3.973433 -11.143957 -20.220753 2.571633 0.000000 0.000000 0.000000 17.402619 -7.349696 -4.697147 60.022684 -0.206958 -5.757416 10.945205 23.443805 3.059966 0.000000 0.000000 0.000000 
-0.000241 0.944301 0.003181 -0.505266 -3.490347 6.819022 5.717516 -0.268299 -3.499181 -0.111028 0.207192 -5.760226 -0.492765 3.087765 11.214777 0.000000 0.000000 0.000000 -2.123785 0.584219 -5.996375 -1.474019 0.048061 -1.790817 -0.243211 -5.469231 10.698009 0.000000 0.000000 0.000000 5.944405 0.325662 -5.240426 -2.788101 1.260758 -4.383388 -4.246448 4.564171 2.580202 7.836714 -4.265389 -10.017050 0.000000 0.000000 0.000000 -19.112126 0.098354 -2.832788 -52.206896 -4.710129 -3.805954 -10.747393 -19.878380 2.457438 0.000000 0.000000 0.000000 16.291358 -7.850241 -4.902652 60.249723 -0.837781 -5.921051 11.862836 23.449767 3.202031 0.000000 0.000000 0.000000 
-0.000520 0.944358 0.004075 -0.367153 -3.308181 6.620018 5.372289 -0.273667 -3.545153 0.281084 0.163164 -5.268563 -0.552361 2.961888 11.059156 0.000000 0.000000 0.000000 -2.201775 0.564345 -5.779581 -1.544032 0.062346 -1.641187 -0.349623 -5.613450 10.587094 0.000000 0.000000 0.000000 5.786792 0.320141 -5.185810 -2.546895 1.163078 -4.110581 -4.330694 4.542566 2.344468 7.419962 -4.035036 -9.654303 0.000000 0.000000 0.000000 -18.921610 0.020990 -2.795795 -51.996875 -4.664726 -3.788562 -11.322476 -19.943092 2.557943 0.000000 0.000000 0.000000 16.161067 -8.048532 -4.970667 60.123781 -1.024521 -5.970576 11.869163 23.472856 3.209690 0.000000 0.000000 0.000000 
-0.000786 0.944367 0.004852 -0.219427 -3.120191 6.782873 5.361426 -0.286379 -3.732760 0.070452 0.176337 -5.245900 -0.653741 2.826201 11.108037 0.000000 0.000000 0.000000 -2.239694 0.574137 -5.896897 -1.715568 0.078427 -1.616981 -0.463169 -5.796227 10.543177 0.000000 0.000000 0.000000 5.655599 0.320420 -5.263212 -2.512469 1.149580 -4.127264 -4.219753 4.406762 2.191733 7.390280 -4.096697 -9.200912 0.000000 0.000000 0.000000 -19.263727 0.598334 -3.143516 -51.480202 -4.483962 -3.801094 -11.312283 -20.241317 2.595357 0.000000 0.000000 0.000000 15.994075 -7.920406 -4.895051 60.086461 -1.038725 -5.952834 11.549942 23.286248 3.111808 0.000000 0.000000 0.000000 
-0.000963 0.944333 0.005355 -0.121987 -2.987696 6.725165 5.173088 -0.292954 -3.808020 0.250990 0.154772 -4.998077 -0.701145 2.736075 11.026275 0.000000 0.000000 0.000000 -2.241781 0.570165 -5.857580 -1.862939 0.098881 -1.481178 -0.549659 -5.916684 10.450049 0.000000 0.000000 0.000000 5.672402 0.307553 -5.125826 -2.524241 1.157374 -3.972494 -4.314306 4.189517 2.171258 7.424336 -4.064393 -9.539756 0.000000 0.000000 0.000000 -19.176584 0.894189 -3.253901 -51.440231 -4.088117 -3.972155 -11.507892 -20.455255 2.662699 0.000000 0.000000 0.000000 15.845331 -8.046091 -4.960691 60.287479 -1.018625 -5.957941 11.449854 23.333354 3.093037 0.000000 0.000000 0.000000 
-0.001077 0.944421 0.005723 -0.088634 -2.756333 6.856996 5.082904 -0.312645 -4.123789 0.396531 0.134511 -4.734649 -0.788441 2.601234 10.985653 0.000000 0.000000 0.000000 -2.220467 0.582400 -6.004302 -1.921409 0.110806 -1.370816 -0.666453 -6.121980 10.465552 0.000000 0.000000 0.000000 5.675415 0.303844 -5.129697 -2.539261 1.166425 -3.831933 -4.341466 4.064913 2.062611 7.403955 -4.091394 -9.286853 0.000000 0.000000 0.000000 -19.205194 1.197182 -3.424788 -51.159518 -3.704839 -4.093476 -11.524547 -20.582830 2.679457 0.000000 0.000000 0.000000 15.909310 -8.279488 -5.089309 60.287111 -0.856138 -5.861046 11.058257 22.864304 2.947938 0.000000 0.000000 0.000000 
-0.001177 0.944460 0.006022 -0.006133 -2.720658 6.889681 4.929185 -0.324222 -4.305135 0.523722 0.114707 -4.463854 -0.789300 2.589180 10.940599 0.000000 0.000000 0.000000 -2.245367 0.590537 -6.105686 -2.024233 0.128984 -1.211415 -0.705481 -6.175836 10.410413 0.000000 0.000000 0.000000 5.691405 0.296940 -5.063838 -2.539046 1.165633 -3.965155 -4.342834 4.068000 2.358408 7.389537 -4.078410 -9.345825 0.000000 0.000000 0.000000 -19.035855 1.412434 -3.500510 -51.330396 -3.534710 -4.214073 -11.348374 -20.398171 2.626774 0.000000 0.000000 0.000000 15.908856 -8.521086 -5.206176 60.221648 -0.737289 -5.822426 10.844228 22.744145 2.895426 0.000000 0.000000 0.000000 
-0.001296 0.944616 0.006341 0.082531 -2.662126 6.968414 4.801798 -0.332428 -4.400086 0.597498 0.108573 -4.442680 -0.828935 2.551752 11.010643 0.000000 0.000000 0.000000 -2.392503 0.602783 -6.267500 -1.915208 0.129908 -1.028159 -0.748738 -6.247768 10.396073 0.000000 0.000000 0.000000 5.705164 0.299101 -5.106025 -2.573905 1.180932 -3.969248 -4.307393 4.030150 2.526747 7.304603 -4.011114 -9.426455 0.000000 0.000000 0.000000 -18.978696 1.571995 -3.563883 -51.480982 -3.591654 -4.222416 -11.063676 -19.968741 2.524024 0.000000 0.000000 0.000000 15.738833 -8.625022 -5.234394 60.458773 -0.399961 -5.686135 10.312931 22.203311 2.720969 0.000000 0.000000 0.000000 
-0.001430 0.944702 0.006707 0.184449 -2.652396 6.991465 4.757757 -0.333596 -4.398483 0.490841 0.117191 -4.463867 -0.853375 2.532797 11.075225 0.000000 0.000000 0.000000 -2.458763 0.610015 -6.364457 -1.982216 0.145661 -0.858597 -0.775594 -6.281711 10.343371 0.000000 0.000000 0.000000 5.718010 0.294555 -5.063482 -2.620387 1.201302 -3.925077 -4.383233 3.995007 2.557675 7.331576 -4.039617 -9.380366 0.000000 0.000000 0.000000 -19.014701 1.597739 -3.579115 -51.521584 -3.414346 -4.303299 -10.542085 -19.466954 2.373178 0.000000 0.000000 0.000000 15.776148 -8.645335 -5.252556 60.528802 -0.227392 -5.609030 9.971436 21.728236 2.592652 0.000000 0.000000 0.000000 
-0.001566 0.944650 0.007134 0.237968 -2.572445 7.114854 4.811404 -0.336489 -4.426762 0.320410 0.136210 -4.636131 -0.907598 2.470674 11.138855 0.000000 0.000000 0.000000 -2.548894 0.606255 -6.320862 -1.902828 0.124397 -1.109825 -0.806079 -6.342057 10.379381 0.000000 0.000000 0.000000 5.697426 0.300486 -5.163635 -2.607218 1.196860 -3.815819 -4.451654 4.007772 2.407336 7.249263 -3.992436 -9.274958 0.000000 0.000000 0.000000 -18.899613 1.690905 -3.630950 -51.757715 -3.385507 -4.323423 -10.061109 -18.946903 2.225751 0.000000 0.000000 0.000000 15.536913 -8.872287 -5.322639 60.776936 -0.263195 -5.617858 9.851350 21.330432 2.518164 0.000000 0.000000 0.000000 
-0.001685 0.944520 0.007612 0.233051 -2.611453 7.196829 4.800423 -0.336382 -4.407733 0.355912 0.138426 -4.757868 -0.884856 2.502961 11.136443 0.000000 0.000000 0.000000 -2.501399 0.605771 -6.301712 -1.975185 0.122150 -1.258305 -0.790133 -6.310889 10.364770 0.000000 0.000000 0.000000 5.734178 0.302641 -5.194059 -2.613384 1.198610 -3.847714 -4.399983 4.010592 2.319101 7.193991 -3.988681 -9.081916 0.000000 0.000000 0.000000 -19.089543 1.797346 -3.715469 -51.672090 -3.311153 -4.334683 -9.827097 -18.484235 2.134004 0.000000 0.000000 0.000000 15.535093 -8.883736 -5.334797 60.803077 -0.139254 -5.548417 9.651629 20.884559 2.420859 0.000000 0.000000 0.000000 
-0.001765 0.944377 0.008067 0.195139 -2.648751 7.195515 4.884588 -0.333528 -4.384136 0.282376 0.142290 -4.725256 -0.852355 2.530718 11.068469 0.000000 0.000000 0.000000 -2.457128 0.608356 -6.327410 -1.978055 0.127765 -1.161565 -0.787621 -6.285141 10.288112 0.000000 0.000000 0.000000 5.758194 0.302224 -5.182046 -2.587403 1.187381 -3.814382 -4.379760 4.070807 2.248011 7.061890 -3.927373 -8.893902 0.000000 0.000000 0.000000 -19.093593 1.927916 -3.795439 -51.734258 -3.206943 -4.377578 -9.790203 -18.165563 2.088822 0.000000 0.000000 0.000000 15.498019 -8.963576 -5.364579 60.715036 -0.162126 -5.541501 9.685326 20.748689 2.409039 0.000000 0.000000 0.000000 
-0.001811 0.944326 0.008480 0.186918 -2.611268 7.292869 4.899305 -0.337728 -4.444818 0.283598 0.143911 -4.769423 -0.864558 2.512996 11.066376 0.000000 0.000000 0.000000 -2.452529 0.613354 -6.383307 -1.963018 0.124728 -1.192270 -0.808357 -6.320713 10.287092 0.000000 0.000000 0.000000 5.799181 0.307111 -5.250049 -2.599698 1.192413 -3.847884 -4.416139 4.137074 2.182017 7.054297 -3.917939 -8.873427 0.000000 0.000000 0.000000 -19.114857 2.031423 -3.877995 -51.644125 -3.087408 -4.407729 -9.825067 -18.095895 2.081854 0.000000 0.000000 0.000000 15.421726 -9.015422 -5.364834 60.713616 -0.179483 -5.535191 9.616825 20.513636 2.369103 0.000000 0.000000 0.000000 
